<?xml version="1.0" encoding="iso-8859-1"?>
<!-- Generator: Adobe Illustrator 17.1.0, SVG Export Plug-In . SVG Version: 6.00 Build 0)  -->
<!DOCTYPE svg PUBLIC "-//W3C//DTD SVG 1.1//EN" "http://www.w3.org/Graphics/SVG/1.1/DTD/svg11.dtd">
<svg xmlns="http://www.w3.org/2000/svg" xmlns:xlink="http://www.w3.org/1999/xlink" version="1.1" id="Capa_1" x="0px" y="0px" viewBox="0 0 337.511 337.511" style="enable-background:new 0 0 337.511 337.511;" xml:space="preserve" width="512px" height="512px">
<path d="M271.971,160.064h0.03c4.971,0,9,4.029,9,9s-4.029,9-9,9s-9.015-4.029-9.015-9S267,160.064,271.971,160.064z   M238.718,92.135l-0.024,0.021c-3.731,3.284-4.083,8.96-0.799,12.691c1.776,2.019,4.26,3.048,6.756,3.048  c2.118,0,4.246-0.741,5.958-2.249c3.731-3.284,4.095-8.971,0.812-12.702C248.137,89.215,242.449,88.851,238.718,92.135z   M261.923,124.176l-0.027,0.011c-4.599,1.889-6.781,7.141-4.893,11.739c1.429,3.478,4.792,5.579,8.336,5.579  c1.142,0,2.302-0.218,3.422-0.678c4.599-1.888,6.795-7.146,4.906-11.745S266.519,122.286,261.923,124.176z M319.902,112.284  c-10.352-25.31-26.979-47.747-48.086-64.887c-3.86-3.133-9.528-2.544-12.66,1.313c-3.134,3.858-2.546,9.526,1.313,12.66  c18.771,15.242,33.562,35.204,42.773,57.728c14.697,35.924,14.525,75.419-0.484,111.212c-15.01,35.792-43.06,63.597-78.984,78.292  c-35.923,14.696-75.418,14.524-111.212-0.485c-35.793-15.01-63.599-43.06-78.293-78.983c-14.696-35.923-14.523-75.419,0.486-111.212  c15.01-35.793,43.06-63.598,78.983-78.294c23.422-9.58,48.979-12.904,73.906-9.614c4.907,0.652,9.45-2.816,10.101-7.745  c0.65-4.928-2.817-9.45-7.745-10.1c-28.032-3.703-56.759,0.033-83.076,10.798c-40.374,16.517-71.899,47.766-88.769,87.993  C1.285,151.188,1.091,195.576,17.608,235.95c16.516,40.373,47.765,71.898,87.992,88.767c20.337,8.528,41.735,12.794,63.144,12.794  c20.938,0,41.883-4.082,61.845-12.248c40.374-16.516,71.899-47.766,88.769-87.992C336.226,197.044,336.419,152.656,319.902,112.284z   M104.984,218.195H232.45c4.971,0,9-4.029,9-9s-4.029-9-9-9H104.984c-4.971,0-9,4.029-9,9S100.013,218.195,104.984,218.195z   M165.007,177.234c1.204,0.545,2.465,0.804,3.707,0.804c3.425,0,6.698-1.966,8.203-5.29L249.38,12.715  c2.051-4.528,0.042-9.861-4.486-11.911c-4.525-2.051-9.859-0.044-11.91,4.486l-72.463,160.032  C158.47,169.85,160.479,175.183,165.007,177.234z M172.765,74.507c5.007,0.256,9.178-3.607,9.408-8.572  c0.23-4.965-3.607-9.178-8.572-9.408c-1.777-0.083-3.571-0.125-5.332-0.125c-62.121,0-112.66,50.54-112.66,112.662  c0,4.971,4.029,9,9,9s9-4.029,9-9C73.609,115.384,118.49,71.973,172.765,74.507z" fill="#3D3D3D"/>
<g>
</g>
<g>
</g>
<g>
</g>
<g>
</g>
<g>
</g>
<g>
</g>
<g>
</g>
<g>
</g>
<g>
</g>
<g>
</g>
<g>
</g>
<g>
</g>
<g>
</g>
<g>
</g>
<g>
</g>
</svg>
