<?xml version="1.0" encoding="utf-8"?>
<!-- Generator: Adobe Illustrator 19.2.0, SVG Export Plug-In . SVG Version: 6.00 Build 0)  -->
<svg version="1.1" id="Layer_1" xmlns="http://www.w3.org/2000/svg" xmlns:xlink="http://www.w3.org/1999/xlink" x="0px" y="0px"
	 viewBox="0 0 870 154.7" style="enable-background:new 0 0 870 154.7;" xml:space="preserve">
<style type="text/css">
	.st0{fill:#FFFFFF;}
</style>
<g>
	<path class="st0" d="M246.4,132.5V42.7h38.1c4.1,0,7.9,0.9,11.4,2.6c3.5,1.7,6.5,4,9,6.8c2.5,2.8,4.5,6,5.9,9.6
		c1.4,3.6,2.2,7.2,2.2,10.8c0,3.8-0.7,7.5-2,11.1c-1.3,3.6-3.2,6.8-5.7,9.6c-2.4,2.8-5.4,5-8.9,6.7c-3.5,1.7-7.3,2.5-11.4,2.5h-21.3
		v30.1H246.4z M263.8,87.1h20.2c3.2,0,5.9-1.3,8-3.9c2.2-2.6,3.2-6.2,3.2-10.6c0-2.3-0.3-4.3-1-6.1c-0.7-1.8-1.6-3.4-2.7-4.6
		c-1.1-1.3-2.4-2.2-3.9-2.8c-1.5-0.6-3-0.9-4.5-0.9h-19.5V87.1z"/>
	<path class="st0" d="M334,42.7l22.1,43.3l22.5-43.3h18.8l-32.6,58.4v31.4h-17.3v-31.6l-32.5-58.2H334z"/>
	<path class="st0" d="M407.4,132.5V42.7H440c7.3,0,13.8,1.2,19.3,3.5c5.5,2.4,10.1,5.6,13.9,9.6c3.7,4,6.5,8.8,8.3,14.2
		c1.9,5.4,2.8,11.2,2.8,17.4c0,6.8-1,13-3.1,18.5c-2.1,5.5-5,10.2-8.9,14.2c-3.9,3.9-8.5,7-14,9.1c-5.4,2.2-11.5,3.2-18.3,3.2H407.4
		z M466.7,87.5c0-4.3-0.6-8.3-1.8-11.9c-1.2-3.6-2.9-6.7-5.2-9.4c-2.3-2.6-5.1-4.6-8.4-6.1C448,58.7,444.3,58,440,58h-15.2v59.2H440
		c4.3,0,8.1-0.8,11.4-2.3c3.3-1.5,6.1-3.6,8.3-6.3c2.2-2.7,3.9-5.8,5.1-9.4C466.1,95.6,466.7,91.7,466.7,87.5z"/>
	<path class="st0" d="M498,132.5V42.7h39.7c4.1,0,7.9,0.9,11.4,2.6c3.5,1.7,6.5,4,9,6.8c2.5,2.8,4.5,6,5.9,9.6
		c1.4,3.6,2.2,7.2,2.2,10.8c0,5.8-1.5,11.1-4.4,15.9c-2.9,4.8-6.9,8.2-11.8,10.3l20.5,33.8H551l-18.3-30.1h-17.2v30.1H498z
		 M515.4,87.1h21.9c1.6,0,3.1-0.4,4.5-1.1c1.4-0.8,2.6-1.8,3.6-3.1c1-1.3,1.8-2.8,2.4-4.6c0.6-1.8,0.9-3.7,0.9-5.7
		c0-2.1-0.3-4-1-5.8c-0.7-1.8-1.6-3.3-2.7-4.6c-1.1-1.3-2.4-2.3-3.9-3c-1.5-0.7-3-1.1-4.5-1.1h-21.1V87.1z"/>
	<path class="st0" d="M620.4,133.1c-6.6,0-12.5-1.3-17.9-3.9c-5.4-2.6-10-6-13.8-10.2c-3.8-4.3-6.8-9.1-8.9-14.6
		c-2.1-5.5-3.2-11.1-3.2-16.8c0-6,1.1-11.7,3.4-17.2c2.2-5.5,5.3-10.3,9.2-14.5c3.9-4.2,8.6-7.6,14-10.1c5.4-2.5,11.3-3.7,17.6-3.7
		c6.5,0,12.4,1.3,17.8,4c5.4,2.7,9.9,6.1,13.7,10.4c3.8,4.3,6.7,9.2,8.9,14.7c2.1,5.5,3.2,11,3.2,16.7c0,6-1.1,11.7-3.3,17.1
		c-2.2,5.4-5.2,10.2-9.1,14.4c-3.9,4.2-8.5,7.5-13.9,10C632.6,131.9,626.7,133.1,620.4,133.1z M594.4,87.6c0,3.9,0.6,7.6,1.8,11.3
		c1.2,3.6,2.9,6.8,5.1,9.6c2.2,2.8,5,5,8.2,6.7c3.2,1.7,6.9,2.5,11.1,2.5c4.2,0,7.9-0.9,11.2-2.6c3.2-1.7,6-4,8.2-6.9
		c2.2-2.9,3.9-6.1,5.1-9.7c1.1-3.6,1.7-7.2,1.7-10.9c0-3.9-0.6-7.6-1.8-11.3c-1.2-3.6-3-6.8-5.2-9.6c-2.2-2.8-5-5-8.2-6.6
		c-3.2-1.6-6.9-2.5-10.9-2.5c-4.2,0-8,0.9-11.3,2.6c-3.3,1.7-6,4-8.2,6.8c-2.2,2.8-3.9,6-5,9.6C594.9,80.2,594.4,83.9,594.4,87.6z"
		/>
	<path class="st0" d="M677.7,132.5V42.7h17.5v89.8H677.7z"/>
	<path class="st0" d="M713.9,132.5V42.7h32.6c7.3,0,13.8,1.2,19.3,3.5c5.5,2.4,10.1,5.6,13.9,9.6c3.7,4,6.5,8.8,8.3,14.2
		c1.9,5.4,2.8,11.2,2.8,17.4c0,6.8-1,13-3.1,18.5c-2.1,5.5-5,10.2-8.9,14.2c-3.9,3.9-8.5,7-14,9.1c-5.4,2.2-11.5,3.2-18.3,3.2H713.9
		z M773.2,87.5c0-4.3-0.6-8.3-1.8-11.9c-1.2-3.6-2.9-6.7-5.2-9.4c-2.3-2.6-5.1-4.6-8.4-6.1c-3.3-1.4-7.1-2.2-11.3-2.2h-15.2v59.2
		h15.2c4.3,0,8.1-0.8,11.4-2.3c3.3-1.5,6.1-3.6,8.3-6.3c2.2-2.7,3.9-5.8,5.1-9.4C772.6,95.6,773.2,91.7,773.2,87.5z"/>
</g>
<g>
	<path class="st0" d="M88.9,76.1l101.9,0c1.3,0,2.4-1.1,2.4-2.4c-0.3-8.1-2.6-15.6-7-22.5c-4.4-7-10.2-12.6-17.5-16.9
		c-1.1-0.6-1.5-2-0.9-3.1l7.3-13c0.5-0.9,0.4-1.6-0.3-2.1c-0.2-0.1-0.3-0.2-0.5-0.3c-0.9-0.3-1.5,0-2,0.8l-7.5,13.3
		c-0.6,1-1.8,1.5-2.9,1c-6.7-2.8-13.8-4.3-21.2-4.4c-7.4-0.1-14.6,1.1-21.4,3.7c-1.1,0.4-2.3,0-2.9-1.1l-7.1-13.5
		c-0.5-0.8-1.1-1.1-2-0.8c-0.2,0.1-0.4,0.2-0.6,0.3c-0.7,0.5-0.8,1.2-0.4,2.1l6.9,13.2c0.6,1.1,0.2,2.5-1,3.1
		c-7.4,4-13.5,9.5-18.1,16.3c-4.6,6.8-7.2,15.8-7.7,23.9C86.5,74.9,87.5,76,88.9,76.1z M161.5,48.7c0.9-0.9,2-1.3,3.2-1.3
		c1.2,0,2.3,0.5,3.1,1.4c0.8,0.9,1.2,2,1.2,3.2c0,1.2-0.5,2.3-1.3,3.2c-0.9,0.9-1.9,1.3-3.1,1.3c-1.2,0-2.3-0.5-3.2-1.4
		c-0.9-0.9-1.3-2-1.3-3.2C160.1,50.6,160.6,49.5,161.5,48.7z M112.9,47.9c0.9-0.9,1.9-1.3,3.1-1.3c1.2,0,2.3,0.5,3.2,1.4
		c0.9,0.9,1.3,2,1.3,3.2c0,1.2-0.5,2.3-1.4,3.1c-0.9,0.9-2,1.3-3.2,1.3c-1.2,0-2.3-0.5-3.1-1.4c-0.8-0.9-1.2-2-1.2-3.2
		C111.6,49.8,112,48.8,112.9,47.9z"/>
	<path class="st0" d="M121.4,108.5l31.6-0.1c0,0,0.1,0,0.1,0c1-0.1,11.5,0.6,13-11.8c0-0.1,0-0.1,0-0.2l0-12.3
		c0-0.8-0.7-1.5-1.5-1.5H92.9c0,0-12.2,0.4-14,27.9c0,0,0,0.1,0,0.1c0,1.2-0.1,29.7,15.2,30.9c0,0,0.1,0,0.1,0l8.6,0
		c0.8,0,1.5-0.7,1.5-1.5v-12.5c0-0.1,0-0.1,0-0.2c0.1-1.2,1.9-16.8,16.7-19C121.2,108.5,121.3,108.5,121.4,108.5z"/>
	<path class="st0" d="M184.2,82.6c0,0-0.1,0-0.1,0l-8.3,0c-0.8,0-1.5,0.7-1.5,1.5v12.5c0,0.1,0,0.1,0,0.2c-0.1,1.2-1.9,16.8-16.7,19
		c-0.1,0-0.1,0-0.2,0l-31.9,0.1c0,0-0.1,0-0.1,0c-1,0.1-11.5-0.6-13,11.8c0,0.1,0,0.1,0,0.2l0,12.2c0,0.8,0.7,1.5,1.5,1.5h71.8
		c0,0,12.2-0.4,14-27.9c0,0,0-0.1,0-0.1C199.4,112.4,199.5,83.9,184.2,82.6z"/>
</g>
</svg>
