<?xml version="1.0" encoding="iso-8859-1"?>
<!-- Generator: Adobe Illustrator 16.0.0, SVG Export Plug-In . SVG Version: 6.00 Build 0)  -->
<!DOCTYPE svg PUBLIC "-//W3C//DTD SVG 1.1//EN" "http://www.w3.org/Graphics/SVG/1.1/DTD/svg11.dtd">
<svg xmlns="http://www.w3.org/2000/svg" xmlns:xlink="http://www.w3.org/1999/xlink" version="1.1" id="Capa_1" x="0px" y="0px" width="512px" height="512px" viewBox="0 0 556.664 556.664" style="enable-background:new 0 0 556.664 556.664;" xml:space="preserve">
<g>
	<g>
		<path d="M545.777,241.476l-45.257-60.229l-13.474-74.122c-4.179-23.004-22.545-40.669-45.696-43.957l-74.597-10.584l-61.93-42.885    c-15.571-10.776-35.217-12.679-52.548-5.095c-3.837,1.675-7.478,3.801-10.843,6.33l-60.232,45.257l-74.125,13.474    c-4.132,0.751-8.171,1.988-12.019,3.663C77.98,80.791,65.745,96.9,63.125,115.357l-10.574,74.588L9.655,251.894    c-13.31,19.221-12.821,44.7,1.23,63.393l45.265,60.222l13.463,74.125c4.184,23.006,22.545,40.669,45.702,43.957l74.596,10.584    l61.93,42.885c15.327,10.61,35.459,12.572,52.547,5.101c3.843-1.678,7.498-3.812,10.854-6.333l60.217-45.267l74.14-13.474    c4.122-0.751,8.172-1.988,12.003-3.661c17.083-7.467,29.319-23.57,31.938-42.036l10.574-74.591l42.896-61.94    C560.323,285.638,559.825,260.156,545.777,241.476z M278.333,476.404c-109.222,0-198.074-88.852-198.074-198.071    S169.116,80.263,278.333,80.263c109.211,0,198.069,88.852,198.069,198.071S387.55,476.404,278.333,476.404z" fill="#FFF"/>
		<path d="M278.333,98.938c-98.913,0-179.391,80.473-179.391,179.396c0,98.916,80.478,179.399,179.391,179.399    c98.922,0,179.391-80.483,179.391-179.399C457.724,179.411,377.255,98.938,278.333,98.938z M198.046,389.914    c-17.761,0-32.146-14.4-32.146-32.151c0-17.761,14.385-32.146,32.146-32.146c17.756,0,32.151,14.385,32.151,32.146    C230.197,375.509,215.802,389.914,198.046,389.914z M278.71,390.132c0-30.35-11.744-58.85-33.062-80.251    c-21.272-21.406-49.591-33.166-79.702-33.166v-46.412c87.759,0,159.18,71.696,159.18,159.833H278.71V390.132z M360.696,390.188    c0-107.943-87.34-195.756-194.693-195.756v-46.417c132.943,0,241.109,108.624,241.109,242.173H360.696z" fill="#FFF"/>
	</g>
</g>
<g>
</g>
<g>
</g>
<g>
</g>
<g>
</g>
<g>
</g>
<g>
</g>
<g>
</g>
<g>
</g>
<g>
</g>
<g>
</g>
<g>
</g>
<g>
</g>
<g>
</g>
<g>
</g>
<g>
</g>
</svg>
