<?xml version="1.0" encoding="iso-8859-1"?>
<!-- Generator: Adobe Illustrator 16.0.0, SVG Export Plug-In . SVG Version: 6.00 Build 0)  -->
<!DOCTYPE svg PUBLIC "-//W3C//DTD SVG 1.1//EN" "http://www.w3.org/Graphics/SVG/1.1/DTD/svg11.dtd">
<svg xmlns="http://www.w3.org/2000/svg" xmlns:xlink="http://www.w3.org/1999/xlink" version="1.1" id="Capa_1" x="0px" y="0px" width="512px" height="512px" viewBox="0 0 58.984 58.984" style="enable-background:new 0 0 58.984 58.984;" xml:space="preserve">
<g>
	<g id="_x31_3">
		<g>
			<path d="M53.146,6.105H5.837C2.619,6.105,0,8.729,0,11.954v35.08c0,3.226,2.619,5.846,5.837,5.846h47.312     c3.218,0,5.836-2.62,5.836-5.846v-35.08C58.982,8.729,56.363,6.105,53.146,6.105z M56.523,47.031     c0,1.865-1.518,3.387-3.379,3.387H5.837c-1.862,0-3.379-1.521-3.379-3.387V11.954c0-1.865,1.518-3.386,3.379-3.386h47.312     c1.86,0,3.379,1.521,3.379,3.386L56.523,47.031L56.523,47.031z M38.029,29.059l12.104-12.123c0.48-0.479,0.48-1.26,0-1.74     c-0.479-0.479-1.257-0.479-1.734,0L29.491,34.131L10.955,15.562c-0.479-0.479-1.257-0.479-1.737,0     c-0.479,0.481-0.479,1.26,0,1.741l12.053,12.069L9.414,41.25c-0.479,0.479-0.479,1.26,0,1.736c0.24,0.24,0.554,0.361,0.869,0.361     c0.315,0,0.629-0.121,0.869-0.361l11.854-11.873l5.617,5.627c0.24,0.239,0.554,0.36,0.869,0.36c0.315,0,0.629-0.121,0.869-0.36     l5.932-5.94L48.46,42.986c0.24,0.24,0.556,0.361,0.869,0.361s0.628-0.121,0.869-0.361c0.479-0.479,0.479-1.26,0-1.736     L38.029,29.059z" fill="#3D3D3D"/>
		</g>
	</g>
</g>
<g>
</g>
<g>
</g>
<g>
</g>
<g>
</g>
<g>
</g>
<g>
</g>
<g>
</g>
<g>
</g>
<g>
</g>
<g>
</g>
<g>
</g>
<g>
</g>
<g>
</g>
<g>
</g>
<g>
</g>
</svg>
