<?xml version="1.0" encoding="iso-8859-1"?>
<!-- Generator: Adobe Illustrator 19.0.0, SVG Export Plug-In . SVG Version: 6.00 Build 0)  -->
<svg xmlns="http://www.w3.org/2000/svg" xmlns:xlink="http://www.w3.org/1999/xlink" version="1.1" id="Layer_1" x="0px" y="0px" viewBox="0 0 469.333 469.333" style="enable-background:new 0 0 469.333 469.333;" xml:space="preserve" width="512px" height="512px">
<g>
	<g>
		<g>
			<path d="M458.667,0h-448C4.771,0,0,4.771,0,10.667v288c0,23.531,19.135,42.667,42.667,42.667h123.871l-37.986,113.958     c-1.865,5.594,1.156,11.635,6.74,13.49c1.125,0.375,2.26,0.552,3.375,0.552c4.469,0,8.625-2.823,10.115-7.292l40.236-120.708H224     v117.333c0,5.896,4.771,10.667,10.667,10.667s10.667-4.771,10.667-10.667V341.333h34.983l40.236,120.708     c1.49,4.469,5.646,7.292,10.115,7.292c1.115,0,2.25-0.177,3.375-0.552c5.583-1.854,8.604-7.896,6.74-13.49l-37.986-113.958     h123.871c23.531,0,42.667-19.135,42.667-42.667v-288C469.333,4.771,464.563,0,458.667,0z M448,298.667     c0,11.76-9.573,21.333-21.333,21.333h-384c-11.76,0-21.333-9.573-21.333-21.333V21.333H448V298.667z" fill="#3D3D3D"/>
			<path d="M74.667,277.333h64c5.896,0,10.667-4.771,10.667-10.667v-85.333c0-5.896-4.771-10.667-10.667-10.667h-64     c-5.896,0-10.667,4.771-10.667,10.667v85.333C64,272.562,68.771,277.333,74.667,277.333z M85.333,192H128v64H85.333V192z" fill="#3D3D3D"/>
			<path d="M202.667,277.333h64c5.896,0,10.667-4.771,10.667-10.667V117.333c0-5.896-4.771-10.667-10.667-10.667h-64     c-5.896,0-10.667,4.771-10.667,10.667v149.333C192,272.562,196.771,277.333,202.667,277.333z M213.333,128H256v128h-42.667V128z" fill="#3D3D3D"/>
			<path d="M330.667,277.333h64c5.896,0,10.667-4.771,10.667-10.667v-192c0-5.896-4.771-10.667-10.667-10.667h-64     C324.771,64,320,68.771,320,74.667v192C320,272.562,324.771,277.333,330.667,277.333z M341.333,85.333H384V256h-42.667V85.333z" fill="#3D3D3D"/>
		</g>
	</g>
</g>
<g>
</g>
<g>
</g>
<g>
</g>
<g>
</g>
<g>
</g>
<g>
</g>
<g>
</g>
<g>
</g>
<g>
</g>
<g>
</g>
<g>
</g>
<g>
</g>
<g>
</g>
<g>
</g>
<g>
</g>
</svg>
